<?xml version="1.0" encoding="iso-8859-1"?>
<!-- Generator: Adobe Illustrator 19.0.0, SVG Export Plug-In . SVG Version: 6.00 Build 0)  -->
<svg version="1.1" id="Capa_1" xmlns="http://www.w3.org/2000/svg" xmlns:xlink="http://www.w3.org/1999/xlink" x="0px" y="0px"
	 viewBox="0 0 514.956 514.956" style="enable-background:new 0 0 514.956 514.956;" xml:space="preserve">
<g>
	<g>
		<path d="M346.245,7.796c-66.004,0-119.731,53.705-119.731,119.731s53.726,119.731,119.731,119.731
			c66.026,0,119.731-53.705,119.731-119.731S412.271,7.796,346.245,7.796z M346.245,203.719c-6.008,0-10.885-4.876-10.885-10.885
			c0-5.987,4.876-10.885,10.885-10.885c30.02,0,54.423-24.403,54.423-54.423c0-5.987,4.876-10.885,10.885-10.885
			c6.008,0,10.885,4.898,10.885,10.885C422.437,169.585,388.259,203.719,346.245,203.719z"/>
		<circle cx="504.072" cy="116.642" r="10.885"/>
		<path d="M504.028,137.083c-6.008,0-10.885,4.876-10.885,10.885v348.308c0,6.03,4.876,10.885,10.885,10.885
			c5.987,0,10.885-4.855,10.885-10.885V147.968C514.913,141.96,510.014,137.083,504.028,137.083z M414.687,419.191
			c-4.963-2.743-11.124-1.284-14.281,3.352c-8.403,12.321-22.226,19.636-37.051,19.636c-24.73,0-44.823-20.115-44.823-44.845
			c0-43.343-33.35-66.004-66.309-66.004c-15.652,0-30.455,4.92-42.102,13.736c-11.603-8.817-26.428-13.736-42.08-13.736
			c-32.959,0-66.287,22.662-66.287,66.004c0,24.73-20.115,44.845-44.845,44.845c-14.847,0-28.67-7.314-37.029-19.636
			c-3.178-4.637-9.383-6.095-14.281-3.352c-4.942,2.721-6.944,8.773-4.659,13.932c20.42,45.868,60.17,72.165,109.02,72.165
			c38.727,0,76.475-16.915,100.16-44.104c23.685,27.19,61.433,44.104,100.182,44.104c48.85,0,88.579-26.297,109.02-72.165
			C421.61,427.986,419.607,421.912,414.687,419.191z"/>
	</g>
</g>
<g>
</g>
<g>
</g>
<g>
</g>
<g>
</g>
<g>
</g>
<g>
</g>
<g>
</g>
<g>
</g>
<g>
</g>
<g>
</g>
<g>
</g>
<g>
</g>
<g>
</g>
<g>
</g>
<g>
</g>
</svg>
